# xmcd CD database file
#
# Track frame offsets:
#	150
#	18902
#	55937
#	71887
#	86936
#	110464
#	133420
#	156574
#	173290
#	194144
#	215856
#	239739
#	256743
#	284086
#	306543
#	335038
#
# Disc length: 4785 seconds
#
# Revision: 0
# Processed by: cddbd v1.5.2PL0 Copyright (c) Steve Scherf et al.
# Submitted via: CDex 1.70beta2
#
DISCID=0e12af10
DTITLE=Los mejores de salsa - various
DYEAR=1900
DGENRE=Salsa
TTITLE0=01 - Se￱ora ley - Conjunto cl￡sico [g]
TTITLE1=02 - Cuidado con el perro - Faustino Arana [g]
TTITLE2=03 - Fe - Los hnos. lebr￳n [g]
TTITLE3=04 - Fuego a la jicotea - Marvin Santiago [g]
TTITLE4=05 - Siempre alegre - Raffy Leavit [g]
TTITLE5=06 - Londres - Luis Felipe Gonz￡lez [g]
TTITLE6=07 - Cali pachanguero - Grupo niche [g]
TTITLE7=08 - Llorar￡s - Oscar D'Le￳n [g]
TTITLE8=09 - Por ella - V￭ctor Manuelle [g]
TTITLE9=10 - La temperatura - Hermanos Lebr￳n [g]
TTITLE10=11 - Llor￡ndote - Nelson y sus estrellas [g]
TTITLE11=12 - Amor para mi - Cuco Valoy [g]
TTITLE12=13 - Un mont￳n de estrellas - Polo Monta￱ez [g]
TTITLE13=14 - Palabras del alma - Marc Anthony [g]
TTITLE14=15 - Ag￺zate - Richie Ray [g]
TTITLE15=16 - Casi te envidio - Andy Monta￱ez [g]
EXTD=
EXTT0=
EXTT1=
EXTT2=
EXTT3=
EXTT4=
EXTT5=
EXTT6=
EXTT7=
EXTT8=
EXTT9=
EXTT10=
EXTT11=
EXTT12=
EXTT13=
EXTT14=
EXTT15=
PLAYORDER=
